<svg width="27" height="27" viewBox="0 0 27 27" fill="none" xmlns="http://www.w3.org/2000/svg">
<circle cx="13.5" cy="13.5" r="13.5" fill="white"/>
<path d="M21.781 11.4162C21.9057 11.3171 22.0911 11.4098 22.0911 11.5664V18.1023C22.0911 18.9492 21.4039 19.6364 20.557 19.6364H7.26151C6.41456 19.6364 5.72742 18.9492 5.72742 18.1023V11.5696C5.72742 11.4098 5.90959 11.3203 6.03743 11.4194C6.75334 11.9755 7.70256 12.6818 10.9625 15.0501C11.6369 15.5423 12.7746 16.5778 13.9092 16.5714C15.0502 16.581 16.2104 15.5231 16.8592 15.0501C20.1191 12.6818 21.0651 11.9723 21.781 11.4162ZM13.9092 15.5455C14.6507 15.5583 15.7182 14.6122 16.2551 14.2223C20.4962 11.1445 20.819 10.8761 21.797 10.109C21.9824 9.96521 22.0911 9.74149 22.0911 9.50498V8.89774C22.0911 8.05079 21.4039 7.36365 20.557 7.36365H7.26151C6.41456 7.36365 5.72742 8.05079 5.72742 8.89774V9.50498C5.72742 9.74149 5.83608 9.96201 6.02145 10.109C6.99943 10.8729 7.32223 11.1445 11.5634 14.2223C12.1003 14.6122 13.1678 15.5583 13.9092 15.5455Z" fill="#064F9A"/>
</svg>
